<svg xmlns="http://www.w3.org/2000/svg" viewBox="0 0 1200 760" role="img" aria-labelledby="title desc">
  <title id="title">async-learning-teacher skill card</title><desc id="desc">A Builder's Essential Skill for turning materials into clear learning.</desc>
  <defs><linearGradient id="bg" x1="0" y1="0" x2="1" y2="1"><stop stop-color="#181519"/><stop offset="1" stop-color="#0b0b10"/></linearGradient><filter id="glow"><feGaussianBlur stdDeviation="16"/></filter></defs>
  <rect width="1200" height="760" fill="#0b0a0d"/><rect x="24" y="24" width="1152" height="712" rx="28" fill="url(#bg)" stroke="#765d84" stroke-opacity=".6"/><circle cx="966" cy="164" r="120" fill="#9875b5" fill-opacity=".2" filter="url(#glow)"/><path d="M78 532C275 532 359 204 608 204s278 264 516 264" fill="none" stroke="#b292d4" stroke-opacity=".72" stroke-width="3"/>
  <text x="78" y="106" fill="#c7b2d3" font-family="Arial, Helvetica, sans-serif" font-size="17" font-weight="700" letter-spacing="3">BUILDER'S ESSENTIAL SKILLS / 03</text><text x="78" y="204" fill="#f5eff7" font-family="Arial, Helvetica, sans-serif" font-size="55" font-weight="700">async-learning-teacher</text><text x="80" y="258" fill="#cbc4cf" font-family="Arial, Helvetica, sans-serif" font-size="28">Turn dense material into a paced lesson, study guide,</text><text x="80" y="296" fill="#cbc4cf" font-family="Arial, Helvetica, sans-serif" font-size="28">or interactive tutoring session.</text>
  <g transform="translate(848 112)" fill="none" stroke="#c0a0dc" stroke-width="5"><path d="M12 38q80-30 160 0v126q-80-30-160 0zM92 24v144"/><path d="M38 76h40M38 104h40M106 76h40M106 104h40"/></g><rect x="78" y="376" width="1044" height="1" fill="#b79bc3" fill-opacity=".35"/><text x="78" y="432" fill="#b99cc5" font-family="Arial, Helvetica, sans-serif" font-size="16" font-weight="700" letter-spacing="2">DISCIPLINE</text><text x="78" y="476" fill="#f3edf6" font-family="Arial, Helvetica, sans-serif" font-size="29">Learning</text><text x="520" y="432" fill="#b99cc5" font-family="Arial, Helvetica, sans-serif" font-size="16" font-weight="700" letter-spacing="2">PROMISE</text><text x="520" y="476" fill="#f3edf6" font-family="Arial, Helvetica, sans-serif" font-size="29">Understanding that stays with you</text><rect x="78" y="554" width="780" height="66" rx="12" fill="#1a1620" stroke="#765a82"/><text x="104" y="596" fill="#dfc9ef" font-family="monospace" font-size="19">$async-learning-teacher Teach me this paper.</text><circle cx="1058" cy="586" r="30" fill="#a884bd"/><path d="m1048 586 8 8 15-17" fill="none" stroke="#1a1020" stroke-width="5"/>
</svg>
