<svg xmlns="http://www.w3.org/2000/svg" viewBox="0 0 1200 760" role="img" aria-labelledby="title desc">
  <title id="title">code-standards skill card</title><desc id="desc">A Builder's Essential Skill for disciplined engineering changes.</desc>
  <defs><linearGradient id="bg" x1="0" y1="0" x2="1" y2="1"><stop stop-color="#11161d"/><stop offset="1" stop-color="#080b10"/></linearGradient><filter id="glow"><feGaussianBlur stdDeviation="16"/></filter></defs>
  <rect width="1200" height="760" fill="#080a0d"/><rect x="24" y="24" width="1152" height="712" rx="28" fill="url(#bg)" stroke="#536f8a" stroke-opacity=".65"/><circle cx="971" cy="164" r="118" fill="#587daa" fill-opacity=".18" filter="url(#glow)"/><path d="M72 540C294 540 358 194 618 194s269 286 506 286" fill="none" stroke="#72a1cf" stroke-opacity=".76" stroke-width="3"/>
  <text x="78" y="106" fill="#a7c2d8" font-family="Arial, Helvetica, sans-serif" font-size="17" font-weight="700" letter-spacing="3">BUILDER'S ESSENTIAL SKILLS / 07</text><text x="78" y="204" fill="#ecf4fa" font-family="Arial, Helvetica, sans-serif" font-size="64" font-weight="700">code-standards</text><text x="80" y="258" fill="#c1cbd3" font-family="Arial, Helvetica, sans-serif" font-size="28">Keep an engineering change focused: understand the code,</text><text x="80" y="296" fill="#c1cbd3" font-family="Arial, Helvetica, sans-serif" font-size="28">make the smallest change, then prove it.</text>
  <g transform="translate(849 112)" fill="none" stroke="#83b3df" stroke-width="5"><path d="M55 29 10 92l45 63M125 29l45 63-45 63M73 166h54"/><path d="m83 92 17 17 35-41"/></g><rect x="78" y="376" width="1044" height="1" fill="#96b2c9" fill-opacity=".35"/><text x="78" y="432" fill="#9ebad0" font-family="Arial, Helvetica, sans-serif" font-size="16" font-weight="700" letter-spacing="2">DISCIPLINE</text><text x="78" y="476" fill="#edf5fb" font-family="Arial, Helvetica, sans-serif" font-size="29">Engineering quality</text><text x="520" y="432" fill="#9ebad0" font-family="Arial, Helvetica, sans-serif" font-size="16" font-weight="700" letter-spacing="2">PROMISE</text><text x="520" y="476" fill="#edf5fb" font-family="Arial, Helvetica, sans-serif" font-size="29">A reviewable change with proof</text><rect x="78" y="554" width="780" height="66" rx="12" fill="#101924" stroke="#4e718e"/><text x="104" y="596" fill="#c6ddf0" font-family="monospace" font-size="17">$code-standards Fix this bug using the project workflow.</text><circle cx="1058" cy="586" r="30" fill="#6393c0"/><path d="m1048 586 8 8 15-17" fill="none" stroke="#091521" stroke-width="5"/>
</svg>
