<svg xmlns="http://www.w3.org/2000/svg" viewBox="0 0 1200 760" role="img" aria-labelledby="title desc">
  <title id="title">create-skill skill card</title><desc id="desc">A Builder's Essential Skill for turning an idea into a complete, discoverable skill.</desc>
  <defs><linearGradient id="bg" x1="0" y1="0" x2="1" y2="1"><stop stop-color="#171419"/><stop offset="1" stop-color="#0b0b10"/></linearGradient><filter id="glow"><feGaussianBlur stdDeviation="16"/></filter></defs>
  <rect width="1200" height="760" fill="#0b0a0d"/><rect x="24" y="24" width="1152" height="712" rx="28" fill="url(#bg)" stroke="#79637d" stroke-opacity=".62"/><circle cx="975" cy="165" r="118" fill="#a36eaa" fill-opacity=".18" filter="url(#glow)"/><path d="M72 540C300 540 358 196 620 196s267 288 504 288" fill="none" stroke="#b88ac0" stroke-opacity=".75" stroke-width="3"/>
  <text x="78" y="106" fill="#c6adca" font-family="Arial, Helvetica, sans-serif" font-size="17" font-weight="700" letter-spacing="3">BUILDER'S ESSENTIAL SKILLS / 10</text><text x="78" y="204" fill="#f6eef7" font-family="Arial, Helvetica, sans-serif" font-size="64" font-weight="700">create-skill</text><text x="80" y="258" fill="#cdc3cf" font-family="Arial, Helvetica, sans-serif" font-size="28">Turn a useful idea into a complete workflow, with the</text><text x="80" y="296" fill="#cdc3cf" font-family="Arial, Helvetica, sans-serif" font-size="28">artwork, metadata, wiring, and checks to ship it.</text>
  <g transform="translate(848 111)" fill="none" stroke="#d0a2d2" stroke-width="5"><path d="M30 52h136v112H30zM54 28h136v112"/><path d="M58 84h76M58 116h52M58 148h66" stroke-linecap="round"/><path d="m135 145 14 14 28-35" stroke-linecap="round" stroke-linejoin="round"/></g><rect x="78" y="376" width="1044" height="1" fill="#b797b5" fill-opacity=".35"/><text x="78" y="432" fill="#bd9cbd" font-family="Arial, Helvetica, sans-serif" font-size="16" font-weight="700" letter-spacing="2">DISCIPLINE</text><text x="78" y="476" fill="#f4edf6" font-family="Arial, Helvetica, sans-serif" font-size="29">Skill design</text><text x="520" y="432" fill="#bd9cbd" font-family="Arial, Helvetica, sans-serif" font-size="16" font-weight="700" letter-spacing="2">PROMISE</text><text x="520" y="476" fill="#f4edf6" font-family="Arial, Helvetica, sans-serif" font-size="29">A complete workflow with proof</text><rect x="78" y="554" width="780" height="66" rx="12" fill="#1a1420" stroke="#765d7d"/><text x="104" y="596" fill="#dfc9e5" font-family="monospace" font-size="19">/create-skill Build this skill end to end.</text><circle cx="1058" cy="586" r="30" fill="#a777ae"/><path d="m1048 586 8 8 15-17" fill="none" stroke="#190e1d" stroke-width="5"/>
</svg>
