<svg xmlns="http://www.w3.org/2000/svg" width="1200" height="760" viewBox="0 0 1200 760" role="img" aria-labelledby="title desc">
  <title id="title">Create Marketing Kit skill card</title>
  <desc id="desc">A dark atelier card with linked campaign frames, describing a workflow for truthful marketing copy and human-centered artwork.</desc>
  <defs>
    <linearGradient id="background" x1="80" y1="40" x2="1110" y2="730" gradientUnits="userSpaceOnUse">
      <stop stop-color="#17141E"/>
      <stop offset="0.52" stop-color="#0B0C10"/>
      <stop offset="1" stop-color="#15110E"/>
    </linearGradient>
    <radialGradient id="glow" cx="0" cy="0" r="1" gradientTransform="translate(940 225) rotate(138) scale(430 300)" gradientUnits="userSpaceOnUse">
      <stop stop-color="#73598B" stop-opacity="0.38"/>
      <stop offset="0.55" stop-color="#B68B56" stop-opacity="0.11"/>
      <stop offset="1" stop-color="#0B0C10" stop-opacity="0"/>
    </radialGradient>
    <linearGradient id="brass" x1="715" y1="155" x2="1055" y2="454" gradientUnits="userSpaceOnUse">
      <stop stop-color="#F0D7A5"/>
      <stop offset="0.45" stop-color="#B88A50"/>
      <stop offset="1" stop-color="#76502E"/>
    </linearGradient>
    <filter id="softGlow" x="-30%" y="-30%" width="160%" height="160%">
      <feGaussianBlur stdDeviation="18"/>
    </filter>
  </defs>

  <rect width="1200" height="760" rx="34" fill="url(#background)"/>
  <rect width="1200" height="760" rx="34" fill="url(#glow)"/>
  <rect x="24" y="24" width="1152" height="712" rx="25" fill="none" stroke="#B68B56" stroke-opacity="0.42"/>
  <path d="M73 544C226 702 470 732 681 651C857 584 990 461 1127 283" fill="none" stroke="#B68B56" stroke-opacity="0.22" stroke-width="1.5"/>
  <circle cx="954" cy="222" r="205" fill="#765796" fill-opacity="0.1" filter="url(#softGlow)"/>

  <text x="72" y="91" fill="#BFAE92" font-family="ui-monospace, SFMono-Regular, Menlo, monospace" font-size="20" letter-spacing="3">BUILDER'S ESSENTIAL SKILLS</text>
  <text x="1086" y="91" fill="#D7C3A0" font-family="ui-monospace, SFMono-Regular, Menlo, monospace" font-size="25" text-anchor="end">11</text>

  <text x="72" y="188" fill="#F1E8D8" font-family="Inter, ui-sans-serif, system-ui, sans-serif" font-size="54" font-weight="650" letter-spacing="-1.8">Create Marketing Kit</text>
  <text x="72" y="237" fill="#BDB4A9" font-family="Inter, ui-sans-serif, system-ui, sans-serif" font-size="25">Turn product truth into campaign copy, human-centered</text>
  <text x="72" y="272" fill="#BDB4A9" font-family="Inter, ui-sans-serif, system-ui, sans-serif" font-size="25">artwork, and channel-ready layouts that stay honest.</text>

  <g transform="translate(706 142)" fill="none" stroke="url(#brass)" stroke-width="4" stroke-linecap="round" stroke-linejoin="round">
    <rect x="0" y="80" width="112" height="148" rx="10" fill="#17131A" stroke-width="3"/>
    <path d="M23 115h66M23 139h48M23 188h66" stroke-width="3" opacity="0.75"/>
    <path d="M112 154h52M164 154l35-62M164 154l35 73" opacity="0.72"/>
    <rect x="198" y="34" width="244" height="136" rx="12" fill="#17131A"/>
    <rect x="198" y="197" width="137" height="173" rx="12" fill="#17131A"/>
    <rect x="358" y="197" width="103" height="184" rx="12" fill="#17131A"/>
    <circle cx="263" cy="91" r="22" stroke-width="3" opacity="0.82"/>
    <path d="M222 145c11-31 31-43 44-43 17 0 33 10 47 43" stroke-width="3" opacity="0.82"/>
    <circle cx="248" cy="252" r="18" stroke-width="3" opacity="0.82"/>
    <path d="M216 308c8-25 22-37 34-37 15 0 30 12 41 37" stroke-width="3" opacity="0.82"/>
    <circle cx="409" cy="253" r="15" stroke-width="3" opacity="0.82"/>
    <path d="M381 305c8-23 19-33 29-33 13 0 25 10 34 33" stroke-width="3" opacity="0.82"/>
    <path d="M222 121h82M221 331h88M378 330h64" stroke-width="2" opacity="0.38"/>
  </g>

  <line x1="72" y1="363" x2="1128" y2="363" stroke="#B68B56" stroke-opacity="0.32"/>
  <text x="72" y="414" fill="#8E806C" font-family="ui-monospace, SFMono-Regular, Menlo, monospace" font-size="17" letter-spacing="2.4">DISCIPLINE</text>
  <text x="72" y="452" fill="#E7D8C0" font-family="Inter, ui-sans-serif, system-ui, sans-serif" font-size="24">Marketing &amp; art direction</text>
  <text x="554" y="414" fill="#8E806C" font-family="ui-monospace, SFMono-Regular, Menlo, monospace" font-size="17" letter-spacing="2.4">PROMISE</text>
  <text x="554" y="452" fill="#E7D8C0" font-family="Inter, ui-sans-serif, system-ui, sans-serif" font-size="24">A truthful, reusable campaign kit</text>

  <rect x="72" y="515" width="1056" height="91" rx="13" fill="#0A0B0D" stroke="#8C6A43" stroke-opacity="0.72"/>
  <circle cx="105" cy="561" r="5" fill="#B68B56"/>
  <text x="126" y="570" fill="#D9C7A9" font-family="ui-monospace, SFMono-Regular, Menlo, monospace" font-size="21">/create-marketing-kit Launch this product honestly.</text>

  <circle cx="84" cy="681" r="12" fill="none" stroke="#B68B56" stroke-width="2"/>
  <path d="m78 681 4 4 8-10" fill="none" stroke="#E8D4AD" stroke-width="2" stroke-linecap="round" stroke-linejoin="round"/>
  <text x="108" y="688" fill="#9C907F" font-family="ui-monospace, SFMono-Regular, Menlo, monospace" font-size="17" letter-spacing="1.3">EVIDENCE → ART DIRECTION → EXPORT → VALIDATION</text>
  <text x="1128" y="688" fill="#756B5E" font-family="ui-monospace, SFMono-Regular, Menlo, monospace" font-size="16" text-anchor="end">builder-essential-skills</text>
</svg>
