<svg xmlns="http://www.w3.org/2000/svg" viewBox="0 0 1200 760" role="img" aria-labelledby="title desc">
  <title id="title">lead skill card</title><desc id="desc">A Builder's Essential Skill for taking a product goal through delivery.</desc>
  <defs><linearGradient id="bg" x1="0" y1="0" x2="1" y2="1"><stop stop-color="#171411"/><stop offset="1" stop-color="#090a0d"/></linearGradient><linearGradient id="line" x1="0" y1="0" x2="1" y2="0"><stop stop-color="#b87537" stop-opacity="0"/><stop offset=".5" stop-color="#e0b06e"/><stop offset="1" stop-color="#7162a2" stop-opacity=".2"/></linearGradient><filter id="glow"><feGaussianBlur stdDeviation="14"/></filter></defs>
  <rect width="1200" height="760" fill="#0b0b0c"/><rect x="24" y="24" width="1152" height="712" rx="28" fill="url(#bg)" stroke="#6c5a40" stroke-opacity=".52"/><circle cx="985" cy="160" r="112" fill="#7d5eab" fill-opacity=".22" filter="url(#glow)"/><path d="M70 552C310 552 350 212 640 212s230 306 486 306" fill="none" stroke="url(#line)" stroke-width="3"/>
  <text x="78" y="106" fill="#c4b79f" font-family="Arial, Helvetica, sans-serif" font-size="17" font-weight="700" letter-spacing="3">BUILDER'S ESSENTIAL SKILLS / 01</text><text x="78" y="204" fill="#f6f0e5" font-family="Arial, Helvetica, sans-serif" font-size="64" font-weight="700">lead</text><text x="80" y="258" fill="#c6c1b9" font-family="Arial, Helvetica, sans-serif" font-size="28">Turn a product goal into a planned, built,</text><text x="80" y="296" fill="#c6c1b9" font-family="Arial, Helvetica, sans-serif" font-size="28">reviewed, and verified pull request.</text>
  <g transform="translate(844 150)" fill="none" stroke="#e0b06e" stroke-width="5"><path d="M0 152 84 0l84 152z"/><path d="M42 76h84"/><circle cx="84" cy="76" r="14" fill="#e0b06e"/></g><rect x="78" y="376" width="1044" height="1" fill="#9c896c" fill-opacity=".35"/><text x="78" y="432" fill="#b7a27d" font-family="Arial, Helvetica, sans-serif" font-size="16" font-weight="700" letter-spacing="2">DISCIPLINE</text><text x="78" y="476" fill="#f3eee5" font-family="Arial, Helvetica, sans-serif" font-size="29">Build &amp; delivery</text><text x="520" y="432" fill="#b7a27d" font-family="Arial, Helvetica, sans-serif" font-size="16" font-weight="700" letter-spacing="2">PROMISE</text><text x="520" y="476" fill="#f3eee5" font-family="Arial, Helvetica, sans-serif" font-size="29">A clear path from goal to proof</text><rect x="78" y="554" width="780" height="66" rx="12" fill="#191817" stroke="#806745"/><text x="104" y="596" fill="#e6d4b7" font-family="monospace" font-size="20">/lead Build this feature and prepare one PR.</text><circle cx="1058" cy="586" r="30" fill="#c18a4e"/><path d="m1048 586 8 8 15-17" fill="none" stroke="#14110e" stroke-width="5"/>
</svg>
