<svg xmlns="http://www.w3.org/2000/svg" viewBox="0 0 1200 760" role="img" aria-labelledby="title desc">
  <title id="title">lead-research skill card</title><desc id="desc">A Builder's Essential Skill for source-grounded strategic research.</desc>
  <defs><linearGradient id="bg" x1="0" y1="0" x2="1" y2="1"><stop stop-color="#121719"/><stop offset="1" stop-color="#080b0c"/></linearGradient><filter id="glow"><feGaussianBlur stdDeviation="16"/></filter></defs>
  <rect width="1200" height="760" fill="#080a0b"/><rect x="24" y="24" width="1152" height="712" rx="28" fill="url(#bg)" stroke="#587276" stroke-opacity=".55"/><circle cx="976" cy="166" r="118" fill="#5a9b94" fill-opacity=".18" filter="url(#glow)"/><path d="M74 540C305 540 350 182 620 182s277 294 504 294" fill="none" stroke="#78b4aa" stroke-opacity=".74" stroke-width="3"/>
  <text x="78" y="106" fill="#a9c1bc" font-family="Arial, Helvetica, sans-serif" font-size="17" font-weight="700" letter-spacing="3">BUILDER'S ESSENTIAL SKILLS / 02</text><text x="78" y="204" fill="#eff6f1" font-family="Arial, Helvetica, sans-serif" font-size="64" font-weight="700">lead-research</text><text x="80" y="258" fill="#c1cac6" font-family="Arial, Helvetica, sans-serif" font-size="28">Map a decision, investigate the field, and make</text><text x="80" y="296" fill="#c1cac6" font-family="Arial, Helvetica, sans-serif" font-size="28">a source-grounded recommendation.</text>
  <g transform="translate(848 116)" fill="none" stroke="#83c1b6" stroke-width="5"><circle cx="93" cy="93" r="64"/><path d="m140 140 52 52M93 45v96M45 93h96"/><circle cx="93" cy="93" r="10" fill="#83c1b6"/></g><rect x="78" y="376" width="1044" height="1" fill="#90b2a8" fill-opacity=".35"/><text x="78" y="432" fill="#89ada3" font-family="Arial, Helvetica, sans-serif" font-size="16" font-weight="700" letter-spacing="2">DISCIPLINE</text><text x="78" y="476" fill="#edf5ef" font-family="Arial, Helvetica, sans-serif" font-size="29">Research &amp; strategy</text><text x="520" y="432" fill="#89ada3" font-family="Arial, Helvetica, sans-serif" font-size="16" font-weight="700" letter-spacing="2">PROMISE</text><text x="520" y="476" fill="#edf5ef" font-family="Arial, Helvetica, sans-serif" font-size="29">Evidence you can act on</text><rect x="78" y="554" width="780" height="66" rx="12" fill="#131a1a" stroke="#50766d"/><text x="104" y="596" fill="#bfe0d6" font-family="monospace" font-size="20">/lead-research Research the best approach.</text><circle cx="1058" cy="586" r="30" fill="#6ca99d"/><path d="m1048 586 8 8 15-17" fill="none" stroke="#0d1715" stroke-width="5"/>
</svg>
