<svg xmlns="http://www.w3.org/2000/svg" viewBox="0 0 1200 760" role="img" aria-labelledby="title desc">
  <title id="title">make-playbook skill card</title><desc id="desc">A Builder's Essential Skill for moving a bootstrapped app from idea to exit.</desc>
  <defs><linearGradient id="bg" x1="0" y1="0" x2="1" y2="1"><stop stop-color="#121917"/><stop offset="1" stop-color="#090d0e"/></linearGradient><filter id="glow"><feGaussianBlur stdDeviation="16"/></filter></defs>
  <rect width="1200" height="760" fill="#080a0b"/><rect x="24" y="24" width="1152" height="712" rx="28" fill="url(#bg)" stroke="#58786d" stroke-opacity=".62"/><circle cx="975" cy="165" r="118" fill="#5ca98c" fill-opacity=".18" filter="url(#glow)"/><path d="M72 540C300 540 358 196 620 196s267 288 504 288" fill="none" stroke="#78b99b" stroke-opacity=".75" stroke-width="3"/>
  <text x="78" y="106" fill="#a9c9b8" font-family="Arial, Helvetica, sans-serif" font-size="17" font-weight="700" letter-spacing="3">BUILDER'S ESSENTIAL SKILLS / 09</text><text x="78" y="204" fill="#eff7f1" font-family="Arial, Helvetica, sans-serif" font-size="64" font-weight="700">make-playbook</text><text x="80" y="258" fill="#c2cec7" font-family="Arial, Helvetica, sans-serif" font-size="28">Diagnose the stage, choose the next move, and keep</text><text x="80" y="296" fill="#c2cec7" font-family="Arial, Helvetica, sans-serif" font-size="28">a bootstrapped product moving toward evidence.</text>
  <g transform="translate(850 112)" fill="none" stroke="#91cfaa" stroke-width="5"><path d="M30 42h126v116H30z"/><path d="M58 78h68M58 108h42M58 138h54" stroke-linecap="round"/><path d="m135 137 14 14 27-34" stroke-linecap="round" stroke-linejoin="round"/></g><rect x="78" y="376" width="1044" height="1" fill="#99bfa9" fill-opacity=".35"/><text x="78" y="432" fill="#8eb8a0" font-family="Arial, Helvetica, sans-serif" font-size="16" font-weight="700" letter-spacing="2">DISCIPLINE</text><text x="78" y="476" fill="#eef6f0" font-family="Arial, Helvetica, sans-serif" font-size="29">Indie making</text><text x="520" y="432" fill="#8eb8a0" font-family="Arial, Helvetica, sans-serif" font-size="16" font-weight="700" letter-spacing="2">PROMISE</text><text x="520" y="476" fill="#eef6f0" font-family="Arial, Helvetica, sans-serif" font-size="29">A clear next move for the product</text><rect x="78" y="554" width="780" height="66" rx="12" fill="#111a17" stroke="#547e69"/><text x="104" y="596" fill="#c8e5d2" font-family="monospace" font-size="19">/make-playbook Find my next move.</text><circle cx="1058" cy="586" r="30" fill="#6caf89"/><path d="m1048 586 8 8 15-17" fill="none" stroke="#0c1711" stroke-width="5"/>
</svg>
