<svg xmlns="http://www.w3.org/2000/svg" viewBox="0 0 1200 760" role="img" aria-labelledby="title desc">
  <title id="title">orwell-writing skill card</title><desc id="desc">A writing skill for making prose direct, specific, and free of filler.</desc>
  <defs><linearGradient id="bg" x1="0" y1="0" x2="1" y2="1"><stop stop-color="#0d71bd"/><stop offset="1" stop-color="#063b72"/></linearGradient><pattern id="grid" width="36" height="36" patternUnits="userSpaceOnUse"><path d="M36 0H0V36" fill="none" stroke="#fff" stroke-opacity=".12" stroke-width="1"/></pattern></defs>
  <rect width="1200" height="760" fill="#f5f0e6"/><rect x="26" y="26" width="1148" height="708" rx="3" fill="url(#bg)"/><rect x="26" y="26" width="1148" height="708" fill="url(#grid)"/>
  <path d="M895 88h170v172H895zM928 132h104M928 172h104M928 212h64" fill="none" stroke="#f5f0e6" stroke-opacity=".55" stroke-width="7"/>
  <rect x="94" y="106" width="1012" height="548" rx="34" fill="#fbfaf8" stroke="#ded9d0" stroke-width="2"/><rect x="128" y="140" width="10" height="480" rx="5" fill="#9465ce"/>
  <text x="170" y="214" fill="#142233" font-family="Arial, Helvetica, sans-serif" font-size="52" font-weight="700">orwell-writing</text><text x="170" y="272" fill="#3e4855" font-family="Arial, Helvetica, sans-serif" font-size="28">Edits prose until it says what it means: direct, specific,</text><text x="170" y="312" fill="#3e4855" font-family="Arial, Helvetica, sans-serif" font-size="28">and free of filler.</text>
  <path d="M170 350h850" stroke="#ded9d0" stroke-width="2" stroke-dasharray="8 9"/>
  <g font-family="Arial, Helvetica, sans-serif"><g fill="#815c30" font-size="16" font-weight="700" letter-spacing="2"><text x="170" y="406">CATEGORY</text><text x="170" y="458">INPUT</text><text x="170" y="510">OUTPUT</text><text x="170" y="574">RUN</text></g><g fill="#3e4855" font-size="24"><text x="390" y="406">Writing</text><text x="390" y="458">A draft, document, message, or copy</text><text x="390" y="510">Cleaner writing that keeps your voice</text></g><rect x="390" y="544" width="510" height="48" rx="6" fill="#f1ecdf"/><text x="410" y="576" fill="#5e482d" font-family="monospace" font-size="17">/orwell-writing Rewrite this in plain English.</text></g>
</svg>
