<svg xmlns="http://www.w3.org/2000/svg" viewBox="0 0 1200 760" role="img" aria-labelledby="title desc">
  <title id="title">orwell-writing skill card</title><desc id="desc">A Builder's Essential Skill for clear, direct writing.</desc>
  <defs><linearGradient id="bg" x1="0" y1="0" x2="1" y2="1"><stop stop-color="#151917"/><stop offset="1" stop-color="#0a0d0c"/></linearGradient><filter id="glow"><feGaussianBlur stdDeviation="16"/></filter></defs>
  <rect width="1200" height="760" fill="#090b0a"/><rect x="24" y="24" width="1152" height="712" rx="28" fill="url(#bg)" stroke="#5d7769" stroke-opacity=".6"/><circle cx="975" cy="165" r="118" fill="#6d9c80" fill-opacity=".17" filter="url(#glow)"/><path d="M72 540C300 540 358 197 620 197s267 287 504 287" fill="none" stroke="#83ae90" stroke-opacity=".72" stroke-width="3"/>
  <text x="78" y="106" fill="#b0c9b6" font-family="Arial, Helvetica, sans-serif" font-size="17" font-weight="700" letter-spacing="3">BUILDER'S ESSENTIAL SKILLS / 06</text><text x="78" y="204" fill="#f0f7ef" font-family="Arial, Helvetica, sans-serif" font-size="64" font-weight="700">orwell-writing</text><text x="80" y="258" fill="#c2cec3" font-family="Arial, Helvetica, sans-serif" font-size="28">Edit prose until it says what it means: direct, specific,</text><text x="80" y="296" fill="#c2cec3" font-family="Arial, Helvetica, sans-serif" font-size="28">and free of filler.</text>
  <g transform="translate(850 108)" fill="none" stroke="#99c5a5" stroke-width="5"><path d="M23 28h132v150H23zM52 68h75M52 98h75M52 128h45"/><path d="m61 172 18 18 43-51"/></g><rect x="78" y="376" width="1044" height="1" fill="#9bb9a0" fill-opacity=".35"/><text x="78" y="432" fill="#9fbda5" font-family="Arial, Helvetica, sans-serif" font-size="16" font-weight="700" letter-spacing="2">DISCIPLINE</text><text x="78" y="476" fill="#eff6f0" font-family="Arial, Helvetica, sans-serif" font-size="29">Writing</text><text x="520" y="432" fill="#9fbda5" font-family="Arial, Helvetica, sans-serif" font-size="16" font-weight="700" letter-spacing="2">PROMISE</text><text x="520" y="476" fill="#eff6f0" font-family="Arial, Helvetica, sans-serif" font-size="29">Clearer language, still your voice</text><rect x="78" y="554" width="780" height="66" rx="12" fill="#131b16" stroke="#537563"/><text x="104" y="596" fill="#c8e1cd" font-family="monospace" font-size="19">/orwell-writing Rewrite this in plain English.</text><circle cx="1058" cy="586" r="30" fill="#78a987"/><path d="m1048 586 8 8 15-17" fill="none" stroke="#0d180f" stroke-width="5"/>
</svg>
