<svg xmlns="http://www.w3.org/2000/svg" viewBox="0 0 1200 760" role="img" aria-labelledby="title desc">
  <title id="title">session-profiler skill card</title><desc id="desc">A Builder's Essential Skill for seeing how an agent session performed.</desc>
  <defs><linearGradient id="bg" x1="0" y1="0" x2="1" y2="1"><stop stop-color="#16131a"/><stop offset="1" stop-color="#0c0b10"/></linearGradient><filter id="glow"><feGaussianBlur stdDeviation="16"/></filter></defs>
  <rect width="1200" height="760" fill="#0b0a0d"/><rect x="24" y="24" width="1152" height="712" rx="28" fill="url(#bg)" stroke="#70577e" stroke-opacity=".62"/><circle cx="972" cy="164" r="118" fill="#9a65b0" fill-opacity=".18" filter="url(#glow)"/><path d="M72 540C298 540 358 202 620 202s269 282 504 282" fill="none" stroke="#ac7cc1" stroke-opacity=".75" stroke-width="3"/>
  <text x="78" y="106" fill="#c2aaca" font-family="Arial, Helvetica, sans-serif" font-size="17" font-weight="700" letter-spacing="3">BUILDER'S ESSENTIAL SKILLS / 08</text><text x="78" y="204" fill="#f6edf8" font-family="Arial, Helvetica, sans-serif" font-size="64" font-weight="700">session-profiler</text><text x="80" y="258" fill="#ccc3d0" font-family="Arial, Helvetica, sans-serif" font-size="28">Make an agent session visible: timing, tool calls, token use,</text><text x="80" y="296" fill="#ccc3d0" font-family="Arial, Helvetica, sans-serif" font-size="28">errors, subagents, and traces.</text>
  <g transform="translate(849 109)" fill="none" stroke="#c194d2" stroke-width="5"><path d="M21 158V30h156v128zM47 130V94l31-28 30 21 29-39 19 18v64"/><circle cx="78" cy="66" r="7" fill="#c194d2"/><circle cx="108" cy="87" r="7" fill="#c194d2"/><circle cx="137" cy="48" r="7" fill="#c194d2"/></g><rect x="78" y="376" width="1044" height="1" fill="#af91ba" fill-opacity=".35"/><text x="78" y="432" fill="#b494c0" font-family="Arial, Helvetica, sans-serif" font-size="16" font-weight="700" letter-spacing="2">DISCIPLINE</text><text x="78" y="476" fill="#f5edf7" font-family="Arial, Helvetica, sans-serif" font-size="29">Developer tools</text><text x="520" y="432" fill="#b494c0" font-family="Arial, Helvetica, sans-serif" font-size="16" font-weight="700" letter-spacing="2">PROMISE</text><text x="520" y="476" fill="#f5edf7" font-family="Arial, Helvetica, sans-serif" font-size="29">The story behind the session</text><rect x="78" y="554" width="780" height="66" rx="12" fill="#1a1420" stroke="#745c82"/><text x="104" y="596" fill="#dac2e4" font-family="monospace" font-size="17">$session-profiler Profile my latest Codex session.</text><circle cx="1058" cy="586" r="30" fill="#a677b7"/><path d="m1048 586 8 8 15-17" fill="none" stroke="#190d20" stroke-width="5"/>
</svg>
