<svg xmlns="http://www.w3.org/2000/svg" viewBox="0 0 1200 760" role="img" aria-labelledby="title desc">
  <title id="title">write-blog skill card</title><desc id="desc">A Builder's Essential Skill for publishing a blog post with a human voice.</desc>
  <defs><linearGradient id="bg" x1="0" y1="0" x2="1" y2="1"><stop stop-color="#1a1411"/><stop offset="1" stop-color="#0e0b0a"/></linearGradient><filter id="glow"><feGaussianBlur stdDeviation="16"/></filter></defs>
  <rect width="1200" height="760" fill="#0d0a09"/><rect x="24" y="24" width="1152" height="712" rx="28" fill="url(#bg)" stroke="#805e47" stroke-opacity=".62"/><circle cx="974" cy="164" r="118" fill="#bf7951" fill-opacity=".18" filter="url(#glow)"/><path d="M72 540C295 540 360 198 620 198s273 290 504 290" fill="none" stroke="#cf8558" stroke-opacity=".75" stroke-width="3"/>
  <text x="78" y="106" fill="#d0ad96" font-family="Arial, Helvetica, sans-serif" font-size="17" font-weight="700" letter-spacing="3">BUILDER'S ESSENTIAL SKILLS / 05</text><text x="78" y="204" fill="#f9eee8" font-family="Arial, Helvetica, sans-serif" font-size="64" font-weight="700">write-blog</text><text x="80" y="258" fill="#d5c4bc" font-family="Arial, Helvetica, sans-serif" font-size="28">Find a strong angle, draft in a human voice, and help</text><text x="80" y="296" fill="#d5c4bc" font-family="Arial, Helvetica, sans-serif" font-size="28">ship a blog post that earns attention.</text>
  <g transform="translate(852 106)" fill="none" stroke="#e09a6e" stroke-width="5"><path d="m22 155 35-9 104-104-26-26L31 120zM118 33l26 26"/><path d="M25 171h150M49 193h101"/><path d="M46 131 67 152"/></g><rect x="78" y="376" width="1044" height="1" fill="#c69c84" fill-opacity=".35"/><text x="78" y="432" fill="#ca9f86" font-family="Arial, Helvetica, sans-serif" font-size="16" font-weight="700" letter-spacing="2">DISCIPLINE</text><text x="78" y="476" fill="#f8eeea" font-family="Arial, Helvetica, sans-serif" font-size="29">Writing &amp; growth</text><text x="520" y="432" fill="#ca9f86" font-family="Arial, Helvetica, sans-serif" font-size="16" font-weight="700" letter-spacing="2">PROMISE</text><text x="520" y="476" fill="#f8eeea" font-family="Arial, Helvetica, sans-serif" font-size="29">A post people want to read</text><rect x="78" y="554" width="780" height="66" rx="12" fill="#211612" stroke="#8f6049"/><text x="104" y="596" fill="#edc3ab" font-family="monospace" font-size="19">/write-blog Write a launch post for this project.</text><circle cx="1058" cy="586" r="30" fill="#c47b55"/><path d="m1048 586 8 8 15-17" fill="none" stroke="#1a0e0a" stroke-width="5"/>
</svg>
